<svg width="83" height="45" viewBox="0 0 83 45" fill="none" xmlns="http://www.w3.org/2000/svg">
<path d="M11.04 27.8C12.04 27.8 12.88 27.68 13.56 27.44C14.24 27.2 14.78 26.88 15.18 26.48C15.5933 26.08 15.8866 25.6133 16.06 25.08C16.2466 24.5467 16.34 23.98 16.34 23.38C16.34 22.7533 16.24 22.1933 16.04 21.7C15.84 21.1933 15.5266 20.7667 15.1 20.42C14.6733 20.06 14.12 19.7867 13.44 19.6C12.7733 19.4133 11.9666 19.32 11.02 19.32L2.5 17.56L5.59997 27.8H11.04ZM5.59997 7.24L2.5 17.56L9.87997 15.6C11.72 15.6 13.1066 15.2667 14.04 14.6C14.9866 13.9333 15.46 12.8733 15.46 11.42C15.46 9.91333 15.0333 8.84 14.18 8.2C13.3266 7.56 11.9933 7.24 10.18 7.24H5.59997ZM10.18 3.08C12.0733 3.08 13.6933 3.26 15.04 3.62C16.3866 3.98 17.4866 4.49333 18.34 5.16C19.2066 5.82667 19.84 6.63333 20.24 7.58C20.64 8.52666 20.84 9.59333 20.84 10.78C20.84 11.46 20.74 12.1133 20.54 12.74C20.34 13.3533 20.0266 13.9333 19.6 14.48C19.1866 15.0133 18.6533 15.5 18 15.94C17.36 16.38 16.5933 16.7533 15.7 17.06C19.6733 17.9533 21.66 20.1 21.66 23.5C21.66 24.7267 21.4266 25.86 20.96 26.9C20.4933 27.94 19.8133 28.84 18.92 29.6C18.0266 30.3467 16.9266 30.9333 15.62 31.36C14.3133 31.7867 12.82 32 11.14 32H0.219971V3.08H10.18Z" fill="#353535"/>
<path d="M36.5747 15.3C36.0147 14.62 35.4013 14.14 34.7347 13.86C34.0813 13.58 33.3747 13.44 32.6147 13.44C31.868 13.44 31.1947 13.58 30.5947 13.86C29.9947 14.14 29.4813 14.5667 29.0547 15.14C28.628 15.7 28.3013 16.42 28.0747 17.3C27.848 18.1667 27.8147 18.6934 27.8147 19.88C27.8147 21.08 27.828 22.6 28.0147 23.44C28.2147 24.2667 28.4947 24.9467 28.8547 25.48C29.2147 26 29.6547 26.38 30.1747 26.62C30.6947 26.8467 31.2747 26.96 31.9147 26.96C32.9413 26.96 33.8147 26.7467 34.5347 26.32C35.2547 25.8934 35.9347 25.2867 36.5747 24.5V15.3ZM41.5147 0.860046V30.58H38.4947C37.8413 30.58 37.428 30.28 37.2547 29.68L36.8347 27.7C36.008 28.6467 35.0547 29.4134 33.9747 30C32.908 30.5867 31.6613 30.88 30.2347 30.88C29.1147 30.88 28.088 30.6467 27.1547 30.18C26.2213 29.7134 25.4147 29.04 24.7347 28.16C24.068 27.2667 23.548 26.1667 23.1747 24.86C22.8147 23.5534 22.2503 22.6136 22.2503 20.3086C22.2503 18.0035 22.8413 17.4467 23.2547 16.14C23.668 14.8334 24.2613 13.7 25.0347 12.74C25.808 11.78 26.7347 11.0334 27.8147 10.5C28.8947 9.95338 30.108 9.68005 31.4547 9.68005C32.6013 9.68005 33.5813 9.86005 34.3947 10.22C35.208 10.58 35.9347 11.0667 36.5747 11.68V0.860046H41.5147Z" fill="#353535"/>
<path d="M57.4947 17.9601C57.4947 17.3201 57.4013 16.7201 57.2147 16.1601C57.0413 15.5867 56.7747 15.0867 56.4147 14.6601C56.0547 14.2334 55.5947 13.9001 55.0347 13.6601C54.488 13.4067 53.848 13.2801 53.1147 13.2801C51.688 13.2801 50.5613 13.6867 49.7347 14.5001C48.9213 15.3134 48.4013 16.4667 48.1747 17.9601H57.4947ZM48.0747 20.9401C48.1547 21.9934 48.3413 22.9067 48.6347 23.6801C48.928 24.4401 49.3147 25.0734 49.7947 25.5801C50.2747 26.0734 50.8413 26.4467 51.4947 26.7001C52.1613 26.9401 52.8947 27.0601 53.6947 27.0601C54.4947 27.0601 55.1813 26.9667 55.7547 26.7801C56.3413 26.5934 56.848 26.3867 57.2747 26.1601C57.7147 25.9334 58.0947 25.7267 58.4147 25.5401C58.748 25.3534 59.068 25.2601 59.3747 25.2601C59.788 25.2601 60.0947 25.4134 60.2947 25.7201L61.7147 27.5201C61.168 28.1601 60.5547 28.7001 59.8747 29.1401C59.1947 29.5667 58.4813 29.9134 57.7347 30.1801C57.0013 30.4334 56.248 30.6134 55.4747 30.7201C54.7147 30.8267 53.9747 30.8801 53.2547 30.8801C51.828 30.8801 50.5013 30.6467 49.2747 30.1801C48.048 29.7001 46.9813 29.0001 46.0747 28.0801C45.168 27.1467 44.4547 26.0001 43.9347 24.6401C43.4147 23.2667 43.1547 21.6801 43.1547 19.8801C43.1547 18.4801 43.3813 17.1667 43.8347 15.9401C44.288 14.7001 44.9347 13.6267 45.7747 12.7201C46.628 11.8001 47.6613 11.0734 48.8747 10.5401C50.1013 10.0067 51.4813 9.74006 53.0147 9.74006C54.308 9.74006 55.5013 9.94672 56.5947 10.3601C57.688 10.7734 58.628 11.3801 59.4147 12.1801C60.2013 12.9667 60.8147 13.9401 61.2547 15.1001C61.708 16.2467 61.9347 17.5601 61.9347 19.0401C61.9347 19.7867 61.8547 20.2934 61.6947 20.5601C61.5347 20.8134 61.228 20.9401 60.7747 20.9401L54.2175 23.6801L48.0747 20.9401Z" fill="#353535"/>
<path d="M82.63 10.3601L74.49 30.8801H70.01L61.87 10.3601H65.95C66.3233 10.3601 66.63 10.4467 66.87 10.6201C67.1233 10.7934 67.29 11.0134 67.37 11.2801L71.33 22.2401C71.5433 22.8801 71.73 23.5067 71.89 24.1201C72.05 24.7334 72.19 25.3467 72.31 25.9601C72.4433 25.3467 72.59 24.7334 72.75 24.1201C72.91 23.5067 73.1033 22.8801 73.33 22.2401L77.37 11.2801C77.4633 11.0134 77.63 10.7934 77.87 10.6201C78.11 10.4467 78.3967 10.3601 78.73 10.3601H82.63Z" fill="#353535"/>
<rect y="38" width="20" height="7" fill="#6BBCEA"/>
</svg>
